<svg width="25" height="20" viewBox="0 0 25 20" fill="none" xmlns="http://www.w3.org/2000/svg">
<g id="Frame 2131329951">
<g id="Vector">
<path d="M11.6873 11.8539H10.8383C10.408 11.8539 10.0169 11.6041 9.83607 11.2137L6.30931 3.60149H21.8934C22.6595 3.60149 23.193 4.36241 22.9318 5.08263L20.7401 11.126C20.5816 11.5629 20.1665 11.8539 19.7017 11.8539H11.6873Z" fill="#014E72"/>
<path d="M11.3653 16.9245C11.3653 17.4664 10.926 17.9058 10.384 17.9058C9.84206 17.9058 9.40272 17.4664 9.40272 16.9245C9.40272 16.3825 9.84206 15.9432 10.384 15.9432C10.926 15.9432 11.3653 16.3825 11.3653 16.9245Z" fill="#94CFDD"/>
<path d="M19.589 17.0571C19.589 17.5991 19.1496 18.0384 18.6077 18.0384C18.0657 18.0384 17.6264 17.5991 17.6264 17.0571C17.6264 16.5152 18.0657 16.0758 18.6077 16.0758C19.1496 16.0758 19.589 16.5152 19.589 17.0571Z" fill="#94CFDD"/>
<path d="M21.8934 3.05149H6.66066L5.8816 1.36996C5.61067 0.785177 5.02483 0.410937 4.38034 0.410937H1.08203C0.778275 0.410937 0.532031 0.657181 0.532031 0.960938C0.532031 1.26469 0.778275 1.51094 1.08203 1.51094H4.38034C4.59635 1.51094 4.79271 1.63637 4.88352 1.83237L5.44834 3.05149L5.81027 3.8327L9.33702 11.4449C9.60506 12.0234 10.1813 12.3959 10.8176 12.4038L9.93597 14.262C9.7417 14.6714 9.73126 15.1043 9.85757 15.4861C9.2712 15.7008 8.85272 16.2638 8.85272 16.9245C8.85272 17.7702 9.53831 18.4558 10.384 18.4558C11.2297 18.4558 11.9153 17.7702 11.9153 16.9245C11.9153 16.8223 11.9053 16.7224 11.8862 16.6258H17.138C17.0979 16.7626 17.0764 16.9074 17.0764 17.0571C17.0764 17.9028 17.762 18.5884 18.6077 18.5884C19.4534 18.5884 20.139 17.9028 20.139 17.0571C20.139 16.2114 19.4534 15.5258 18.6077 15.5258C18.4998 15.5258 18.3945 15.537 18.2929 15.5582C18.2347 15.5372 18.172 15.5258 18.1065 15.5258H11.4308C11.0235 15.5258 10.7552 15.1015 10.9298 14.7335L12.0351 12.4039H19.7017C20.398 12.4039 21.0198 11.968 21.2571 11.3135L23.4488 5.27014C23.8401 4.1913 23.041 3.05149 21.8934 3.05149Z" stroke="#014E72" stroke-width="1.1" stroke-linecap="round"/>
</g>
</g>
</svg>
