<svg width="43" height="41" viewBox="0 0 43 41" fill="none" xmlns="http://www.w3.org/2000/svg">
<g id="logo-2 1" clip-path="url(#clip0_2260_854)">
<g id="Clip path group">
<mask id="mask0_2260_854" style="mask-type:luminance" maskUnits="userSpaceOnUse" x="0" y="0" width="42" height="41">
<g id="clip0_101_906">
<path id="Vector" d="M30.8904 0.178313L0 11.5645L10.8443 40.9849L41.7347 29.5987L30.8904 0.178313Z" fill="white"/>
</g>
</mask>
<g mask="url(#mask0_2260_854)">
<g id="Group">
<path id="Vector_2" d="M17.2857 13.5157C15.5401 14.1104 8.39784 15.495 6.32022 21.1676C3.64491 28.4719 8.69356 33.1241 13.4678 34.6672C16.8553 35.7611 23.9709 36.3753 27.5322 34.8213C30.9666 33.3239 35.6049 27.4776 36.6467 22.8157C37.9062 17.1814 36.5633 10.7392 29.1745 9.58452C22.1356 8.4837 19.2216 12.8558 17.2857 13.5157Z" fill="white"/>
<path id="Vector_3" d="M18.0537 24.2398C17.5484 24.4454 17.3293 23.7974 16.6351 22.4153C15.4559 20.0711 15.7383 20.2961 16.416 20.017C16.6968 19.9038 16.9564 19.1451 17.753 19.222C19.1634 19.348 20.2954 22.4457 18.0644 22.7123C17.4772 22.7825 18.7552 23.9519 18.0537 24.2398ZM17.3142 20.2563C16.2113 20.7043 18.0744 22.833 18.2935 21.5236C18.3929 20.9581 17.8382 20.0412 17.3142 20.2563Z" fill="#014E72"/>
<path id="Vector_4" d="M21.8213 22.4179C21.1689 22.6852 21.53 21.6673 21.4961 21.2215C21.4767 20.9752 21.1214 21.267 20.6767 21.1628C20.0102 21.0112 18.7612 19.1924 19.1163 18.713C19.6464 17.9935 20.4812 20.3452 21.003 20.1309C21.6367 19.8729 20.6135 18.3926 20.9021 17.9133C21.6572 16.6819 23.1907 21.8644 21.8213 22.4179Z" fill="#EE765E"/>
<path id="Vector_5" d="M25.4593 19.6857C25.2904 19.7553 25.05 19.6976 24.8973 19.4102C24.8309 19.2835 24.4138 18.2722 24.2865 18.0607C24.1242 17.7939 23.9293 17.6926 23.7887 17.8054C23.7258 17.8554 23.6237 18.0125 23.6339 18.5011C23.6358 18.6199 23.8163 19.5503 23.8263 19.6709C23.858 20.0176 23.8208 20.2238 23.705 20.3372C23.6709 20.3717 23.6315 20.3984 23.586 20.4152C23.4402 20.4738 23.2789 20.4236 23.1853 20.3435C23.0344 20.2212 22.9461 19.9685 22.8976 19.7768C22.8919 19.7546 22.566 18.6632 22.5434 18.5619C22.4354 18.0751 22.4503 17.8283 22.5963 17.7501C22.7941 17.6456 22.8283 17.5379 22.9021 17.4375C22.9253 17.407 23.2574 16.9653 23.4724 16.8471C23.7959 16.6693 24.1386 16.7307 24.3605 16.8049C24.5263 16.8608 24.6015 16.8843 24.6876 16.8574C24.7496 16.8321 24.9771 16.4874 25.0116 16.4406C25.1347 16.2734 25.3033 16.143 25.5025 16.0622C25.7104 15.9783 25.9028 15.9659 26.0158 15.9852C26.2542 16.024 26.592 16.2725 26.7391 16.518C26.8556 16.714 27.4614 17.9166 27.5585 18.1733C27.6485 18.4107 27.721 18.7009 27.4684 18.8574C27.3049 18.9615 27.0021 18.9147 26.8121 18.6264C26.7303 18.4981 26.2447 17.5681 26.2447 17.5681C26.1807 17.4479 25.9491 17.1334 25.7665 17.1861C25.6446 17.2359 25.5648 17.4603 25.5496 17.6463C25.536 17.783 25.748 18.926 25.7477 19.0455C25.7423 19.345 25.7372 19.5247 25.5068 19.6609C25.491 19.6716 25.4744 19.6801 25.4593 19.6857Z" fill="#014E72"/>
<path id="Vector_6" d="M13.6823 25.6845C13.3272 25.83 13.0548 25.5721 12.9794 25.4609L12.983 25.4572C12.9399 25.4072 12.8769 25.3232 12.7737 25.1833C12.7206 25.1663 12.6406 25.1495 12.5682 25.1737C12.3325 25.2558 11.7641 25.3434 11.382 25.3355C10.4497 25.3111 10.1624 25.1464 9.90933 25.0008C9.86632 24.9777 9.82548 24.9537 9.78247 24.9306C9.2913 24.6802 8.93947 24.22 8.81642 23.6657C8.69357 23.1187 8.83155 22.5778 9.03665 22.2926C8.99623 22.2832 8.95559 22.2664 8.91692 22.2417C8.73859 22.1319 8.55321 21.7225 8.82238 21.0968C9.05027 20.5594 9.33639 20.2735 9.54513 20.065C9.64951 19.9607 9.77044 19.8747 9.8879 19.7924C9.9716 19.7322 10.054 19.6751 10.1345 19.6064C10.2836 19.4832 10.2483 19.2939 10.2279 19.2185L10.2237 19.1738C10.2506 18.9128 10.3592 18.7265 10.5271 18.6476L10.5588 18.6334C10.8309 18.5234 11.0381 18.6445 11.1325 18.7803C11.2223 18.9105 11.3922 18.9503 11.6764 18.9065L11.861 18.8798C12.7365 18.7497 12.9097 18.7858 13.4923 18.9099L13.6834 18.954C14.3069 19.0825 14.9115 19.781 15.1067 20.0967C15.2874 20.3933 15.5304 20.8789 15.5438 21.6833C15.5556 22.3834 15.3341 22.838 15.1864 23.1386C14.8599 23.8025 14.203 24.325 13.9786 24.4711C13.9012 24.5215 13.9062 24.622 14.0019 25.0085C14.0431 25.1737 14.1189 25.4796 13.7306 25.6618C13.7162 25.6695 13.6996 25.6781 13.6823 25.6845ZM9.49876 21.9297C9.657 21.8714 9.77452 21.8963 9.83211 21.919C9.9465 21.9621 10.0117 22.0722 10.0123 22.2207C10.0121 22.267 9.99108 22.3235 9.95273 22.4132C9.8851 22.5771 9.90769 22.8588 9.94192 23.1387C9.97774 23.4229 10.2347 23.8328 10.4947 24.0172C10.7414 24.192 10.85 24.2397 11.2032 24.2558C11.5336 24.2705 11.9061 24.1722 12.0671 24.108L12.0988 24.0938C12.1723 24.0595 12.22 24.0151 12.2404 23.9636C12.2642 23.9013 12.2533 23.8249 12.2068 23.7323C12.1147 23.5493 12.0094 23.2834 11.8971 23.0055C11.8099 22.789 11.7195 22.5639 11.6306 22.3627C11.427 21.9039 10.9794 20.9769 10.8805 20.8086C10.7938 20.6602 10.7468 20.6531 10.7029 20.6474C10.653 20.639 10.5862 20.6514 10.5097 20.6844C10.3856 20.7351 10.2776 20.8163 10.2335 20.857C9.93077 21.1245 9.82546 21.2731 9.77174 21.3611C9.63261 21.5781 9.57304 21.7171 9.49876 21.9297ZM12.1953 19.9803C12.0906 20.0237 12.0791 20.0792 12.0663 20.2448C12.0515 20.4184 12.2097 20.9012 12.5341 21.6811L12.5489 21.7147C12.6806 22.0317 13.1262 22.9668 13.2331 23.1029C13.3498 23.2525 13.405 23.3223 13.5848 23.3024C13.7173 23.2877 13.8547 23.1663 14.0165 22.9239C14.3737 22.39 14.4407 21.8437 14.2427 21.0928C14.1071 20.5846 13.6181 20.153 13.2255 20.0296C12.7466 19.8794 12.4863 19.8949 12.2438 19.9648C12.2256 19.9691 12.2097 19.9725 12.1953 19.9803Z" fill="#FCBD16"/>
<path id="Vector_7" d="M30.8808 26.5677C29.9126 26.5394 30.7581 25.4599 30.8197 24.4914C30.852 23.9847 30.7288 23.9643 30.3728 23.9736C29.2623 24.0003 28.7531 23.3202 28.7394 22.1942C28.7075 20.117 31.5792 18.9366 32.4077 20.4765C32.4178 20.4971 34.124 23.5294 34.204 23.6998C34.566 24.4683 33.7734 24.7093 33.9171 24.6514C33.0244 25.0219 32.8403 23.1397 32.3366 23.3497C31.4245 23.7274 32.3043 26.6085 30.8808 26.5677ZM30.2794 21.0952C29.4922 21.7047 30.1553 23.7443 31.4369 22.6454C32.5516 21.6885 31.3346 20.2772 30.2794 21.0952Z" fill="#014E72"/>
<path id="Vector_8" d="M28.9813 27.4725C27.9746 27.8874 27.9929 25.2919 27.3934 25.0815C26.9678 24.9289 25.4241 25.6441 25.3062 25.7582C24.6063 26.4379 26.1142 28.4513 25.2063 28.8273C24.429 29.1432 24.2265 27.8991 23.6431 25.7887C23.1808 24.1138 22.5668 22.9824 23.3615 22.6066C24.1901 22.2427 24.1585 24.6286 24.7472 24.6894C25.2342 24.7415 26.1131 24.3736 26.5729 24.0579C27.0699 23.7163 26.9791 23.0892 26.7774 22.5419C26.3312 21.3316 26.5719 21.0893 26.6922 21.0084C27.2194 20.6483 27.7168 21.8374 28.0091 22.7973C29.3065 27.0455 29.6611 27.1926 28.9813 27.4725Z" fill="#014E72"/>
<path id="Vector_9" d="M20.0505 30.7167C18.9139 31.1868 19.9229 28.9209 19.9826 28.7088C20.1494 28.1062 20.0152 28.1362 19.6613 28.0643C18.5614 27.8457 18.2647 27.0409 18.5158 25.9587C18.9865 23.8889 22.0192 23.339 22.4548 25.0553C22.4605 25.0776 23.3732 28.4219 23.4116 28.6198C23.6087 29.6221 22.4891 29.791 22.2624 28.902C21.8059 27.0958 21.2313 28.229 20.6961 30.0034C20.6247 30.237 20.4791 30.5368 20.0505 30.7167ZM20.0306 25.4589C19.0592 26.1168 19.9269 27.6227 20.991 27.016C22.1607 26.3484 21.0549 24.7645 20.0306 25.4589Z" fill="#014E72"/>
<path id="Vector_10" d="M15.2373 33.6002C14.4658 33.9187 14.5883 32.6475 11.7605 28.2224C11.105 27.1989 12.0156 26.6098 12.5805 27.4278C13.3593 28.552 13.8313 29.3116 14.0983 29.301C14.6051 29.2799 15.4686 28.7301 15.8887 28.3266C16.7018 27.5467 14.83 25.3676 15.5568 24.9145C16.1692 24.5254 16.5503 25.5257 17.9208 28.282C18.8516 30.1595 19.918 31.1754 18.9964 31.5541C17.9358 31.9767 17.6864 28.8218 16.4394 29.3399C16.2237 29.4292 16.0856 29.5288 15.7791 29.7126C15.1925 30.0652 14.6026 30.3485 14.8248 31.0247C15.0809 31.7932 16.0356 33.2743 15.2373 33.6002Z" fill="#014E72"/>
<path id="Vector_11" d="M28.9649 14.7779C28.0301 14.8738 27.4656 15.6669 27.5996 16.8655C27.7337 18.0641 28.3673 18.6276 29.3052 18.5135C30.2453 18.3985 30.9299 17.4369 30.7036 16.2284C30.4802 15.0213 29.6674 14.7066 28.9649 14.7779ZM29.8321 16.5496C29.915 17.1285 29.6236 17.6137 29.2068 17.6186C28.7879 17.6244 28.5571 17.3389 28.5038 16.7199C28.4504 16.101 28.6138 15.736 29.0688 15.6341C29.5041 15.5395 29.7515 15.97 29.8321 16.5496Z" fill="#4AAE42"/>
<path id="Vector_12" d="M26.9708 2.09768C26.9708 2.09768 21.4861 2.68851 18.8834 5.7612C15.8894 9.29502 17.6827 13.3385 17.6827 13.3385C20.1758 11.9394 21.9522 13.7392 25.563 10.9701C29.6969 7.80346 26.9708 2.09768 26.9708 2.09768Z" fill="#00625E"/>
<path id="Vector_13" d="M11.2708 9.13903C11.2708 9.13903 11.5311 10.6202 12.6281 11.7393C13.7221 12.857 14.9038 12.8164 15.5618 12.7445C16.2198 12.6726 16.8013 12.3997 16.8013 12.3997C16.8013 12.3997 16.469 11.9592 16.1479 10.7807C15.8268 9.60231 15.398 8.74634 13.975 8.59319C12.5507 8.44301 11.5485 9.43155 11.2708 9.13903Z" fill="#00625E"/>
<g id="Group_2" opacity="0.78">
<path id="Vector_14" style="mix-blend-mode:multiply" d="M11.2708 9.13903C11.2708 9.13903 11.5311 10.6202 12.6281 11.7393C13.7221 12.857 14.9038 12.8164 15.5618 12.7445C16.2198 12.6726 16.8013 12.3997 16.8013 12.3997C16.8013 12.3997 16.469 11.9592 16.1479 10.7807C15.8268 9.60231 15.398 8.74634 13.975 8.59319C12.5507 8.44301 11.5485 9.43155 11.2708 9.13903Z" fill="url(#paint0_radial_2260_854)"/>
</g>
</g>
</g>
</g>
</g>
<defs>
<radialGradient id="paint0_radial_2260_854" cx="0" cy="0" r="1" gradientUnits="userSpaceOnUse" gradientTransform="translate(11.7775 12.0205) rotate(-56.2102) scale(5.39583 12.368)">
<stop stop-color="#2581C4"/>
<stop offset="0.5189" stop-color="#2581C4" stop-opacity="0"/>
</radialGradient>
<clipPath id="clip0_2260_854">
<rect width="33.4003" height="31.3554" fill="white" transform="translate(0 11.5645) rotate(-20.2338)"/>
</clipPath>
</defs>
</svg>
